#!OML:ASF F:\VICON\USERDATA\INSTALL\SteveWalk\SteveWalk.ASF
:FULLY-SPECIFIED
:DEGREES
76
root -0.486364 16.3616 -29.1208 16.2015 -0.312383 2.33529
lowerback -15.1275 -1.37817 -4.52603
upperback -5.43531 -1.13059 -0.932148
thorax 2.77948 -0.538466 1.38345
lowerneck -2.07742 -0.862161 0.326705
upperneck 9.0928 -1.31689 1.61471
head 3.28875 -0.584042 0.421878
rclavicle 1.95057e-015 5.96354e-015
rhumerus -52.555 -20.1276 -69.6239
rradius 17.9216
rwrist 8.48974
rhand -13.0798 -34.5295
rfingers 7.12502
rthumb 13.0163 -64.1035
lclavicle 1.95057e-015 5.96354e-015
lhumerus -25.7753 3.26758 80.0677
lradius 25.7611
lwrist -7.92081
lhand -16.847 -15.7443
lfingers 7.12502
lthumb 9.38298 14.0268
rfemur -47.5909 -2.10515 19.4023
rtibia 57.077
rfoot -14.2426 -2.80687
rtoes -12.4983
lfemur -22.9104 6.13965 -27.5621
ltibia 34.3815
lfoot -24.2419 -5.36893
ltoes -5.89781
77
root -0.484604 16.3651 -28.9072 16.1759 0.0901305 2.26147
lowerback -15.1519 -1.47968 -4.49899
upperback -5.43062 -1.26886 -0.853287
thorax 2.80668 -0.606927 1.4263
lowerneck -1.95513 -0.977107 0.236117
upperneck 9.47761 -1.47455 1.63988
head 3.40108 -0.662297 0.441018
rclavicle 1.64991e-014 -1.19271e-014
rhumerus -54.3921 -22.1995 -66.3479
rradius 16.7075
rwrist 11.7501
rhand -13.0132 -34.3717
rfingers 7.12502
rthumb 13.0805 -63.9415
lclavicle 1.64991e-014 -1.19271e-014
lhumerus -24.7195 1.54658 80.3929
lradius 26.8633
lwrist -6.24603
lhand -17.2003 -15.9485
lfingers 7.12502
lthumb 9.04211 13.8377
rfemur -47.9892 -2.05462 19.715
rtibia 54.1658
rfoot -13.9888 -3.42961
rtoes -11.877
lfemur -21.68 6.42968 -27.299
ltibia 33.6479
lfoot -24.5462 -6.00986
ltoes -6.08022
78
root -0.480027 16.3755 -28.6881 16.1022 0.671429 2.18688
lowerback -15.2542 -1.62991 -4.42862
upperback -5.37432 -1.47167 -0.761648
thorax 2.93342 -0.709903 1.44434
lowerneck -1.20446 -0.925866 0.260367
upperneck 8.71346 -1.39807 1.77864
head 2.99682 -0.62803 0.486386
rclavicle 1.6201e-014 3.97569e-016
rhumerus -56.4399 -24.1526 -62.7945
rradius 15.6376
rwrist 14.9456
rhand -13.1975 -34.0572
rfingers 7.12502
rthumb 12.9028 -63.6383
lclavicle 1.6201e-014 3.97569e-016
lhumerus -23.7828 -0.022204 80.5999
lradius 28.1546
lwrist -4.69789
lhand -17.4191 -16.2422
lfingers 7.12502
lthumb 8.8309 13.553
rfemur -48.1359 -2.23883 20.0335
rtibia 51.0858
rfoot -14.0434 -3.77328
rtoes -11.6147
lfemur -20.3052 6.79188 -26.9814
ltibia 32.8057
lfoot -24.8638 -6.96265
ltoes -5.74322
79
root -0.470981 16.3638 -28.4742 16.0886 1.16286 2.16887
lowerback -15.4139 -1.79244 -4.37764
upperback -5.23083 -1.68293 -0.663932
thorax 3.18421 -0.820252 1.4746
lowerneck -0.949626 -1.02814 0.191009
upperneck 8.20227 -1.52934 1.89075
head 2.77929 -0.697129 0.531041
rclavicle -1.02809e-014 2.38542e-015
rhumerus -58.226 -25.6811 -59.6209
rradius 14.997
rwrist 17.8125
rhand -12.7243 -34.7287
rfingers 7.12502
rthumb 13.3589 -64.2804
lclavicle -1.02809e-014 2.38542e-015
lhumerus -22.6784 -1.29107 80.6626
lradius 29.42
lwrist -3.37549
lhand -17.6439 -16.5111
lfingers 7.12502
lthumb 8.61401 13.2932
rfemur -48.0323 -2.53617 20.2945
rtibia 47.9036
rfoot -14.2604 -4.01465
rtoes -10.1492
lfemur -18.9583 7.13555 -26.7616
ltibia 31.9034
lfoot -25.0254 -7.889
ltoes -5.44388
80
root -0.461761 16.3699 -28.2615 16.1852 1.48563 2.26448
lowerback -15.4103 -1.9161 -4.44843
upperback -5.17937 -1.83574 -0.610684
thorax 3.249 -0.897058 1.54173
lowerneck -1.1236 -1.17816 0.0340554
upperneck 8.13381 -1.73161 1.9827
head 2.79348 -0.799073 0.581211
rclavicle -9.33046e-015 1.05356e-014
rhumerus -60.0749 -27.0629 -56.4197
rradius 14.515
rwrist 20.5742
rhand -11.8762 -35.8782
rfingers 7.12502
rthumb 14.1763 -65.3745
lclavicle -9.33046e-015 1.05356e-014
lhumerus -21.4756 -2.37544 80.6713
lradius 30.441
lwrist -2.32008
lhand -18.1949 -16.4303
lfingers 7.12502
lthumb 8.08224 13.3951
rfemur -48.4078 -2.92454 20.5673
rtibia 44.5132
rfoot -13.5279 -4.55952
rtoes -11.1612
lfemur -17.7055 7.47929 -26.7036
ltibia 30.9525
lfoot -25.2113 -8.65832
ltoes -5.69378
81
root -0.454932 16.3678 -28.049 16.2817 1.88609 2.29151
lowerback -15.3864 -2.02394 -4.38977
upperback -5.18654 -1.98809 -0.595211
thorax 3.23669 -0.972112 1.49779
lowerneck -1.19677 -1.23689 -0.0742308
upperneck 8.20971 -1.8181 2.11358
head 2.83689 -0.840171 0.639263
rclavicle -1.53002e-014 6.36111e-015
rhumerus -62.6479 -28.9499 -51.9118
rradius 13.5253
rwrist 24.8229
rhand -12.0911 -35.586
rfingers 7.12502
rthumb 13.9693 -65.0967
lclavicle -1.53002e-014 6.36111e-015
lhumerus -20.337 -3.52786 80.5817
lradius 31.3628
lwrist -1.11501
lhand -18.7959 -16.8349
lfingers 7.12502
lthumb 7.50213 13.012
rfemur -48.7025 -3.35268 20.9604
rtibia 41.0717
rfoot -12.7161 -4.95855
rtoes -14.4718
lfemur -16.4908 7.95686 -26.5281
ltibia 29.9896
lfoot -25.3733 -9.67819
ltoes -5.3329
82
root -0.449914 16.3527 -27.8379 16.3244 2.40068 2.32813
lowerback -15.3064 -2.14211 -4.3231
upperback -5.22923 -2.1584 -0.595194
thorax 3.15683 -1.05453 1.43227
lowerneck -1.04421 -1.24721 -0.213447
upperneck 8.22595 -1.84507 2.36488
head 2.81989 -0.850719 0.744161
rclavicle 9.25591e-016 4.17448e-015
rhumerus -65.9901 -30.9626 -46.272
rradius 12.5125
rwrist 29.736
rhand -12.7789 -34.682
rfingers 7.12502
rthumb 13.3063 -64.2372
lclavicle 9.25591e-016 4.17448e-015
lhumerus -19.3684 -4.53536 80.4063
lradius 32.3798
lwrist -0.0137075
lhand -18.9593 -17.6546
lfingers 7.12502
lthumb 7.34447 12.1979
rfemur -48.7459 -3.82475 21.3031
rtibia 37.6424
rfoot -12.2099 -4.86348
rtoes -16.0064
lfemur -15.1417 8.36424 -26.2918
ltibia 28.8503
lfoot -25.2768 -10.7662
ltoes -4.41388
83
root -0.447896 16.34 -27.6239 16.4131 2.97856 2.5218
lowerback -15.2395 -2.31661 -4.47392
upperback -5.29889 -2.37047 -0.60092
thorax 3.06449 -1.15606 1.47602
lowerneck -0.79282 -1.34253 -0.326145
upperneck 8.09776 -1.97444 2.49623
head 2.73576 -0.917159 0.803223
rclavicle -3.05197e-014 -2.52457e-014
rhumerus -68.0941 -31.4209 -43.4383
rradius 12.6352
rwrist 30.1935
rhand -12.0812 -35.9741
rfingers 7.12502
rthumb 13.9788 -65.4841
lclavicle -3.05197e-014 -2.52457e-014
lhumerus -18.4364 -5.3641 80.2098
lradius 33.4787
lwrist 0.837668
lhand -19.099 -18.0785
lfingers 7.12502
lthumb 7.20957 11.7787
rfemur -48.8633 -4.38329 21.4735
rtibia 34.3696
rfoot -11.9062 -4.27659
rtoes -14.8043
lfemur -13.7655 8.67042 -26.1692
ltibia 27.6339
lfoot -25.2657 -11.7667
ltoes -3.93275
84
root -0.444776 16.3265 -27.4071 16.5458 3.557 2.81636
lowerback -15.4057 -2.5133 -4.72218
upperback -5.24221 -2.57877 -0.627236
thorax 3.2334 -1.26133 1.54263
lowerneck -0.665063 -1.48427 -0.443479
upperneck 7.88453 -2.16632 2.65338
head 2.64828 -1.01402 0.869233
rclavicle -3.12527e-014 -2.70347e-014
rhumerus -70.6801 -32.2065 -39.5164
rradius 12.3655
rwrist 32.5603
rhand -12.4654 -35.4378
rfingers 7.12502
rthumb 13.6085 -64.973
lclavicle -3.12527e-014 -2.70347e-014
lhumerus -17.2823 -6.09307 79.9875
lradius 34.459
lwrist 1.75543
lhand -19.5085 -18.2978
lfingers 7.12502
lthumb 6.81429 11.5726
rfemur -49.1043 -5.02693 21.5581
rtibia 31.3737
rfoot -11.8984 -3.32493
rtoes -13.3232
lfemur -12.3608 8.97707 -26.1385
ltibia 26.3365
lfoot -25.3719 -12.7176
ltoes -3.93401
85
root -0.44024 16.3065 -27.1922 16.7059 4.11299 3.10946
lowerback -15.624 -2.71025 -4.97733
upperback -5.15361 -2.78157 -0.634068
thorax 3.46627 -1.3657 1.63023
lowerneck -0.559111 -1.62506 -0.573603
upperneck 7.66773 -2.35832 2.84046
head 2.56545 -1.1105 0.947195
rclavicle -1.61699e-014 -1.8487e-014
rhumerus -73.8382 -33.4021 -34.189
rradius 11.9212
rwrist 36.1543
rhand -13.136 -34.8459
rfingers 7.12502
rthumb 12.9621 -64.4232
lclavicle -1.61699e-014 -1.8487e-014
lhumerus -16.1338 -6.50582 79.762
lradius 35.3962
lwrist 2.46623
lhand -19.788 -17.7688
lfingers 7.12502
lthumb 6.54446 12.1101
rfemur -49.4472 -5.69803 21.7051
rtibia 28.623
rfoot -11.7485 -2.29504
rtoes -12.4974
lfemur -10.9842 9.34387 -26.1047
ltibia 24.9811
lfoot -25.3552 -13.7428
ltoes -4.3281
86
root -0.440984 16.281 -26.9775 16.8731 4.69239 3.3433
lowerback -15.6841 -2.91635 -5.2233
upperback -5.11974 -3.01026 -0.609179
thorax 3.56147 -1.47992 1.74715
lowerneck -0.64329 -1.78733 -0.599198
upperneck 7.57742 -2.57303 2.84303
head 2.55549 -1.21803 0.946453
rclavicle 2.28851e-014 3.97569e-015
rhumerus -77.1907 -34.4408 -28.4801
rradius 11.4652
rwrist 39.9829
rhand -14.0787 -34.4553
rfingers 7.12502
rthumb 12.0532 -64.0882
lclavicle 2.28851e-014 3.97569e-015
lhumerus -15.1748 -6.81572 79.4964
lradius 36.4933
lwrist 2.90546
lhand -19.9918 -17.0025
lfingers 7.12502
lthumb 6.34774 12.8824
rfemur -49.7833 -6.22748 21.8805
rtibia 26.0324
rfoot -11.4919 -1.50643
rtoes -13.1202
lfemur -9.67959 9.81677 -25.9559
ltibia 23.6981
lfoot -25.3421 -14.896
ltoes -5.13226
